# xmcd CD database file
#
# Track frame offsets:
#	150
#	20103
#	48768
#	60670
#	89298
#	101438
#	118360
#	135867
#	161689
#	187448
#	200428
#	219829
#	246242
#	258381
#	281393
#	301180
#
# Disc length: 4371 seconds
#
# Revision: 0
# Processed by: cddbd v1.5.1PL0 Copyright (c) Steve Scherf et al.
# Submitted via: CDex 1.51
#
DISCID=e2111110
DTITLE=Various Artist - LateNiteJazz
DYEAR=1900
DGENRE=Jazz
TTITLE0=Ricky Ford/Chelsea Bridge
TTITLE1=Cannonball Adderley/Willow Weep for me
TTITLE2=Miles Davis/Milestone
TTITLE3=Eliane Elias/Chan's song
TTITLE4=Art Pepper/These foolish things remind me of you
TTITLE5=Dizzy Gillespie/They can't take that away from me
TTITLE6=Sadao Watanabe/My Romance
TTITLE7=Larry Coryell/Yesterdays
TTITLE8=Al Cohin and Zoot Sims/Body and Soul
TTITLE9=Pat Martino/Passata on Guitar
TTITLE10=Houston bPearson/Daydream
TTITLE11=Yusef Lateef/Stella by Starlight
TTITLE12=Stan Getz/Stan's Mood
TTITLE13=Sonny Stitt/Angel Eyes
TTITLE14=Milt Jackson/Blues Mood
TTITLE15=David Newman/One for my Baby (and one for the road)
EXTD=
EXTT0=
EXTT1=
EXTT2=
EXTT3=
EXTT4=
EXTT5=
EXTT6=
EXTT7=
EXTT8=
EXTT9=
EXTT10=
EXTT11=
EXTT12=
EXTT13=
EXTT14=
EXTT15=
PLAYORDER=
